<mxfile host="app.diagrams.net" modified="2023-04-19T05:40:10.835Z" agent="Mozilla/5.0 (Windows NT 10.0; Win64; x64) AppleWebKit/537.36 (KHTML, like Gecko) Chrome/112.0.0.0 Safari/537.36 Edg/112.0.1722.48" etag="qcoTX69ss47X-JbZCq0-" version="21.1.8" type="device" pages="2">
  <diagram name="페이지-1" id="5jsfIG2CUHw-9pUjX0_4">
    <mxGraphModel dx="1620" dy="936" grid="1" gridSize="10" guides="1" tooltips="1" connect="1" arrows="1" fold="1" page="1" pageScale="1" pageWidth="3300" pageHeight="4681" math="0" shadow="0">
      <root>
        <mxCell id="0" />
        <mxCell id="1" parent="0" />
        <mxCell id="0sxkqcGZ3d9sreAJxTUJ-4" value="회원" style="shape=umlActor;verticalLabelPosition=bottom;verticalAlign=top;html=1;" parent="1" vertex="1">
          <mxGeometry x="50" y="250" width="30" height="60" as="geometry" />
        </mxCell>
        <mxCell id="0sxkqcGZ3d9sreAJxTUJ-6" value="영화 시스템" style="shape=umlFrame;whiteSpace=wrap;html=1;pointerEvents=0;width=100;height=40;" parent="1" vertex="1">
          <mxGeometry x="230" y="110" width="1040" height="900" as="geometry" />
        </mxCell>
        <mxCell id="0sxkqcGZ3d9sreAJxTUJ-7" value="관리자" style="shape=umlActor;verticalLabelPosition=bottom;verticalAlign=top;html=1;" parent="1" vertex="1">
          <mxGeometry x="1390" y="570" width="30" height="60" as="geometry" />
        </mxCell>
        <mxCell id="0sxkqcGZ3d9sreAJxTUJ-14" value="비회원" style="shape=umlActor;verticalLabelPosition=bottom;verticalAlign=top;html=1;" parent="1" vertex="1">
          <mxGeometry x="50" y="940" width="30" height="60" as="geometry" />
        </mxCell>
        <mxCell id="0sxkqcGZ3d9sreAJxTUJ-16" value="회원 가입" style="ellipse;whiteSpace=wrap;html=1;" parent="1" vertex="1">
          <mxGeometry x="336.25" y="952.5" width="82.5" height="35" as="geometry" />
        </mxCell>
        <mxCell id="0sxkqcGZ3d9sreAJxTUJ-18" value="영화 조회" style="ellipse;whiteSpace=wrap;html=1;" parent="1" vertex="1">
          <mxGeometry x="280" y="480" width="80" height="50" as="geometry" />
        </mxCell>
        <mxCell id="0sxkqcGZ3d9sreAJxTUJ-19" value="마이페이지" style="ellipse;whiteSpace=wrap;html=1;" parent="1" vertex="1">
          <mxGeometry x="450" y="160" width="70" height="40" as="geometry" />
        </mxCell>
        <mxCell id="0sxkqcGZ3d9sreAJxTUJ-20" value="고객 센터" style="ellipse;whiteSpace=wrap;html=1;" parent="1" vertex="1">
          <mxGeometry x="340" y="570" width="80" height="30" as="geometry" />
        </mxCell>
        <mxCell id="0sxkqcGZ3d9sreAJxTUJ-21" value="스토어" style="ellipse;whiteSpace=wrap;html=1;" parent="1" vertex="1">
          <mxGeometry x="347.5" y="700" width="60" height="30" as="geometry" />
        </mxCell>
        <mxCell id="0sxkqcGZ3d9sreAJxTUJ-22" value="이벤트" style="ellipse;whiteSpace=wrap;html=1;" parent="1" vertex="1">
          <mxGeometry x="347.5" y="820" width="60" height="25" as="geometry" />
        </mxCell>
        <mxCell id="0sxkqcGZ3d9sreAJxTUJ-65" style="edgeStyle=orthogonalEdgeStyle;rounded=0;orthogonalLoop=1;jettySize=auto;html=1;entryX=0.5;entryY=0;entryDx=0;entryDy=0;" parent="1" source="0sxkqcGZ3d9sreAJxTUJ-23" target="0sxkqcGZ3d9sreAJxTUJ-18" edge="1">
          <mxGeometry relative="1" as="geometry" />
        </mxCell>
        <mxCell id="0sxkqcGZ3d9sreAJxTUJ-23" value="예매" style="ellipse;whiteSpace=wrap;html=1;" parent="1" vertex="1">
          <mxGeometry x="290" y="400" width="60" height="50" as="geometry" />
        </mxCell>
        <mxCell id="0sxkqcGZ3d9sreAJxTUJ-24" value="Use" style="endArrow=open;endSize=12;html=1;rounded=0;exitX=0.5;exitY=0.5;exitDx=0;exitDy=0;exitPerimeter=0;entryX=0;entryY=0.5;entryDx=0;entryDy=0;" parent="1" source="0sxkqcGZ3d9sreAJxTUJ-4" target="0sxkqcGZ3d9sreAJxTUJ-19" edge="1">
          <mxGeometry width="160" relative="1" as="geometry">
            <mxPoint x="620" y="530" as="sourcePoint" />
            <mxPoint x="780" y="530" as="targetPoint" />
          </mxGeometry>
        </mxCell>
        <mxCell id="0sxkqcGZ3d9sreAJxTUJ-26" value="Use" style="endArrow=open;endSize=12;html=1;rounded=0;exitX=0.5;exitY=0.5;exitDx=0;exitDy=0;exitPerimeter=0;entryX=0;entryY=0.5;entryDx=0;entryDy=0;" parent="1" source="0sxkqcGZ3d9sreAJxTUJ-4" target="0sxkqcGZ3d9sreAJxTUJ-20" edge="1">
          <mxGeometry width="160" relative="1" as="geometry">
            <mxPoint x="185" y="310" as="sourcePoint" />
            <mxPoint x="360" y="225" as="targetPoint" />
          </mxGeometry>
        </mxCell>
        <mxCell id="0sxkqcGZ3d9sreAJxTUJ-27" value="Use" style="endArrow=open;endSize=12;html=1;rounded=0;exitX=0.5;exitY=0.5;exitDx=0;exitDy=0;exitPerimeter=0;entryX=0;entryY=0.5;entryDx=0;entryDy=0;" parent="1" source="0sxkqcGZ3d9sreAJxTUJ-4" target="0sxkqcGZ3d9sreAJxTUJ-21" edge="1">
          <mxGeometry width="160" relative="1" as="geometry">
            <mxPoint x="195" y="320" as="sourcePoint" />
            <mxPoint x="370" y="235" as="targetPoint" />
          </mxGeometry>
        </mxCell>
        <mxCell id="0sxkqcGZ3d9sreAJxTUJ-28" value="Use" style="endArrow=open;endSize=12;html=1;rounded=0;exitX=0.5;exitY=0.5;exitDx=0;exitDy=0;exitPerimeter=0;entryX=0;entryY=0.5;entryDx=0;entryDy=0;" parent="1" source="0sxkqcGZ3d9sreAJxTUJ-4" target="0sxkqcGZ3d9sreAJxTUJ-22" edge="1">
          <mxGeometry width="160" relative="1" as="geometry">
            <mxPoint x="205" y="330" as="sourcePoint" />
            <mxPoint x="380" y="245" as="targetPoint" />
          </mxGeometry>
        </mxCell>
        <mxCell id="0sxkqcGZ3d9sreAJxTUJ-29" value="Use" style="endArrow=open;endSize=12;html=1;rounded=0;exitX=0.5;exitY=0.5;exitDx=0;exitDy=0;exitPerimeter=0;entryX=0;entryY=0.5;entryDx=0;entryDy=0;" parent="1" source="0sxkqcGZ3d9sreAJxTUJ-4" target="0sxkqcGZ3d9sreAJxTUJ-18" edge="1">
          <mxGeometry width="160" relative="1" as="geometry">
            <mxPoint x="215" y="340" as="sourcePoint" />
            <mxPoint x="390" y="255" as="targetPoint" />
          </mxGeometry>
        </mxCell>
        <mxCell id="0sxkqcGZ3d9sreAJxTUJ-30" value="Use" style="endArrow=open;endSize=12;html=1;rounded=0;exitX=0.5;exitY=0.5;exitDx=0;exitDy=0;exitPerimeter=0;entryX=0;entryY=0.5;entryDx=0;entryDy=0;" parent="1" source="0sxkqcGZ3d9sreAJxTUJ-14" target="0sxkqcGZ3d9sreAJxTUJ-16" edge="1">
          <mxGeometry width="160" relative="1" as="geometry">
            <mxPoint x="215" y="235" as="sourcePoint" />
            <mxPoint x="390" y="150" as="targetPoint" />
          </mxGeometry>
        </mxCell>
        <mxCell id="4dzDuoimYEvEoXy0T6nt-11" style="edgeStyle=orthogonalEdgeStyle;rounded=0;orthogonalLoop=1;jettySize=auto;html=1;entryX=0.5;entryY=1;entryDx=0;entryDy=0;dashed=1;" parent="1" source="0sxkqcGZ3d9sreAJxTUJ-33" target="0sxkqcGZ3d9sreAJxTUJ-19" edge="1">
          <mxGeometry relative="1" as="geometry">
            <Array as="points">
              <mxPoint x="580" y="230" />
              <mxPoint x="485" y="230" />
            </Array>
          </mxGeometry>
        </mxCell>
        <mxCell id="0sxkqcGZ3d9sreAJxTUJ-33" value="탈퇴" style="ellipse;whiteSpace=wrap;html=1;" parent="1" vertex="1">
          <mxGeometry x="555" y="260" width="50" height="30" as="geometry" />
        </mxCell>
        <mxCell id="4dzDuoimYEvEoXy0T6nt-9" style="edgeStyle=orthogonalEdgeStyle;rounded=0;orthogonalLoop=1;jettySize=auto;html=1;entryX=0.5;entryY=1;entryDx=0;entryDy=0;dashed=1;" parent="1" source="0sxkqcGZ3d9sreAJxTUJ-34" target="0sxkqcGZ3d9sreAJxTUJ-19" edge="1">
          <mxGeometry relative="1" as="geometry" />
        </mxCell>
        <mxCell id="0sxkqcGZ3d9sreAJxTUJ-34" value="정보 변경" style="ellipse;whiteSpace=wrap;html=1;" parent="1" vertex="1">
          <mxGeometry x="410" y="260" width="60" height="30" as="geometry" />
        </mxCell>
        <mxCell id="0sxkqcGZ3d9sreAJxTUJ-38" value="예약 조회" style="ellipse;whiteSpace=wrap;html=1;" parent="1" vertex="1">
          <mxGeometry x="350" y="260" width="60" height="30" as="geometry" />
        </mxCell>
        <mxCell id="0sxkqcGZ3d9sreAJxTUJ-48" value="인증" style="ellipse;whiteSpace=wrap;html=1;" parent="1" vertex="1">
          <mxGeometry x="750" y="465" width="60" height="50" as="geometry" />
        </mxCell>
        <mxCell id="0sxkqcGZ3d9sreAJxTUJ-52" style="edgeStyle=orthogonalEdgeStyle;rounded=0;orthogonalLoop=1;jettySize=auto;html=1;entryX=0.5;entryY=1;entryDx=0;entryDy=0;" parent="1" source="0sxkqcGZ3d9sreAJxTUJ-50" target="0sxkqcGZ3d9sreAJxTUJ-38" edge="1">
          <mxGeometry relative="1" as="geometry" />
        </mxCell>
        <mxCell id="0sxkqcGZ3d9sreAJxTUJ-50" value="&lt;font style=&quot;vertical-align: inherit;&quot;&gt;&lt;font style=&quot;vertical-align: inherit;&quot;&gt;&lt;font style=&quot;vertical-align: inherit;&quot;&gt;&lt;font style=&quot;vertical-align: inherit;&quot;&gt;변경&lt;br&gt;&lt;/font&gt;&lt;/font&gt;&lt;/font&gt;&lt;/font&gt;" style="ellipse;whiteSpace=wrap;html=1;" parent="1" vertex="1">
          <mxGeometry x="330" y="340" width="47.5" height="30" as="geometry" />
        </mxCell>
        <mxCell id="0sxkqcGZ3d9sreAJxTUJ-53" style="edgeStyle=orthogonalEdgeStyle;rounded=0;orthogonalLoop=1;jettySize=auto;html=1;entryX=0.5;entryY=1;entryDx=0;entryDy=0;" parent="1" source="0sxkqcGZ3d9sreAJxTUJ-51" target="0sxkqcGZ3d9sreAJxTUJ-38" edge="1">
          <mxGeometry relative="1" as="geometry">
            <mxPoint x="560" y="360" as="targetPoint" />
          </mxGeometry>
        </mxCell>
        <mxCell id="0sxkqcGZ3d9sreAJxTUJ-51" value="&lt;font style=&quot;vertical-align: inherit;&quot;&gt;&lt;font style=&quot;vertical-align: inherit;&quot;&gt;취소&lt;/font&gt;&lt;/font&gt;" style="ellipse;whiteSpace=wrap;html=1;" parent="1" vertex="1">
          <mxGeometry x="380" y="340" width="50" height="30" as="geometry" />
        </mxCell>
        <mxCell id="0sxkqcGZ3d9sreAJxTUJ-54" value="&amp;lt;&amp;lt;include&amp;gt;&amp;gt;" style="endArrow=open;endSize=12;html=1;rounded=0;exitX=1;exitY=0.5;exitDx=0;exitDy=0;dashed=1;" parent="1" source="0sxkqcGZ3d9sreAJxTUJ-20" target="0sxkqcGZ3d9sreAJxTUJ-48" edge="1">
          <mxGeometry width="160" relative="1" as="geometry">
            <mxPoint x="490" y="595" as="sourcePoint" />
            <mxPoint x="715" y="785" as="targetPoint" />
          </mxGeometry>
        </mxCell>
        <mxCell id="0sxkqcGZ3d9sreAJxTUJ-57" value="&amp;lt;&amp;lt;include&amp;gt;&amp;gt;" style="endArrow=open;endSize=12;html=1;rounded=0;exitX=1;exitY=0.5;exitDx=0;exitDy=0;dashed=1;" parent="1" source="0sxkqcGZ3d9sreAJxTUJ-19" target="0sxkqcGZ3d9sreAJxTUJ-48" edge="1">
          <mxGeometry width="160" relative="1" as="geometry">
            <mxPoint x="770" y="620" as="sourcePoint" />
            <mxPoint x="450" y="645" as="targetPoint" />
          </mxGeometry>
        </mxCell>
        <mxCell id="0sxkqcGZ3d9sreAJxTUJ-66" style="edgeStyle=orthogonalEdgeStyle;rounded=0;orthogonalLoop=1;jettySize=auto;html=1;entryX=0.5;entryY=1;entryDx=0;entryDy=0;dashed=1;" parent="1" source="0sxkqcGZ3d9sreAJxTUJ-58" target="0sxkqcGZ3d9sreAJxTUJ-20" edge="1">
          <mxGeometry relative="1" as="geometry" />
        </mxCell>
        <mxCell id="0sxkqcGZ3d9sreAJxTUJ-58" value="대관 문의" style="ellipse;whiteSpace=wrap;html=1;" parent="1" vertex="1">
          <mxGeometry x="290" y="640" width="60" height="30" as="geometry" />
        </mxCell>
        <mxCell id="0sxkqcGZ3d9sreAJxTUJ-71" style="edgeStyle=orthogonalEdgeStyle;rounded=0;orthogonalLoop=1;jettySize=auto;html=1;entryX=0.5;entryY=1;entryDx=0;entryDy=0;dashed=1;" parent="1" source="0sxkqcGZ3d9sreAJxTUJ-60" target="0sxkqcGZ3d9sreAJxTUJ-22" edge="1">
          <mxGeometry relative="1" as="geometry" />
        </mxCell>
        <mxCell id="0sxkqcGZ3d9sreAJxTUJ-60" value="시사회" style="ellipse;whiteSpace=wrap;html=1;" parent="1" vertex="1">
          <mxGeometry x="327.5" y="885" width="50" height="30" as="geometry" />
        </mxCell>
        <mxCell id="0sxkqcGZ3d9sreAJxTUJ-70" style="edgeStyle=orthogonalEdgeStyle;rounded=0;orthogonalLoop=1;jettySize=auto;html=1;dashed=1;" parent="1" source="0sxkqcGZ3d9sreAJxTUJ-61" edge="1">
          <mxGeometry relative="1" as="geometry">
            <mxPoint x="377.5000000000001" y="730" as="targetPoint" />
          </mxGeometry>
        </mxCell>
        <mxCell id="0sxkqcGZ3d9sreAJxTUJ-61" value="스낵" style="ellipse;whiteSpace=wrap;html=1;" parent="1" vertex="1">
          <mxGeometry x="327.5" y="770" width="50" height="30" as="geometry" />
        </mxCell>
        <mxCell id="0sxkqcGZ3d9sreAJxTUJ-69" style="edgeStyle=orthogonalEdgeStyle;rounded=0;orthogonalLoop=1;jettySize=auto;html=1;entryX=0.5;entryY=1;entryDx=0;entryDy=0;dashed=1;" parent="1" source="0sxkqcGZ3d9sreAJxTUJ-62" target="0sxkqcGZ3d9sreAJxTUJ-21" edge="1">
          <mxGeometry relative="1" as="geometry" />
        </mxCell>
        <mxCell id="0sxkqcGZ3d9sreAJxTUJ-62" value="기념품" style="ellipse;whiteSpace=wrap;html=1;" parent="1" vertex="1">
          <mxGeometry x="377.5" y="770" width="50" height="30" as="geometry" />
        </mxCell>
        <mxCell id="0sxkqcGZ3d9sreAJxTUJ-67" style="edgeStyle=orthogonalEdgeStyle;rounded=0;orthogonalLoop=1;jettySize=auto;html=1;dashed=1;" parent="1" source="0sxkqcGZ3d9sreAJxTUJ-63" edge="1">
          <mxGeometry relative="1" as="geometry">
            <mxPoint x="380.0000000000001" y="599.9999999999999" as="targetPoint" />
          </mxGeometry>
        </mxCell>
        <mxCell id="0sxkqcGZ3d9sreAJxTUJ-63" value="분실물" style="ellipse;whiteSpace=wrap;html=1;" parent="1" vertex="1">
          <mxGeometry x="350" y="640" width="60" height="30" as="geometry" />
        </mxCell>
        <mxCell id="0sxkqcGZ3d9sreAJxTUJ-68" style="edgeStyle=orthogonalEdgeStyle;rounded=0;orthogonalLoop=1;jettySize=auto;html=1;entryX=0.5;entryY=1;entryDx=0;entryDy=0;dashed=1;" parent="1" source="0sxkqcGZ3d9sreAJxTUJ-64" target="0sxkqcGZ3d9sreAJxTUJ-20" edge="1">
          <mxGeometry relative="1" as="geometry" />
        </mxCell>
        <mxCell id="0sxkqcGZ3d9sreAJxTUJ-64" value="광고 문의" style="ellipse;whiteSpace=wrap;html=1;" parent="1" vertex="1">
          <mxGeometry x="410" y="640" width="60" height="30" as="geometry" />
        </mxCell>
        <mxCell id="0sxkqcGZ3d9sreAJxTUJ-72" value="회원 관리" style="ellipse;whiteSpace=wrap;html=1;" parent="1" vertex="1">
          <mxGeometry x="1075" y="190" width="70" height="30" as="geometry" />
        </mxCell>
        <mxCell id="0sxkqcGZ3d9sreAJxTUJ-75" value="예매 관리" style="ellipse;whiteSpace=wrap;html=1;" parent="1" vertex="1">
          <mxGeometry x="1075" y="325" width="70" height="30" as="geometry" />
        </mxCell>
        <mxCell id="0sxkqcGZ3d9sreAJxTUJ-101" style="edgeStyle=orthogonalEdgeStyle;rounded=0;orthogonalLoop=1;jettySize=auto;html=1;entryX=0.5;entryY=1;entryDx=0;entryDy=0;" parent="1" source="0sxkqcGZ3d9sreAJxTUJ-76" target="0sxkqcGZ3d9sreAJxTUJ-75" edge="1">
          <mxGeometry relative="1" as="geometry" />
        </mxCell>
        <mxCell id="0sxkqcGZ3d9sreAJxTUJ-76" value="조회" style="ellipse;whiteSpace=wrap;html=1;" parent="1" vertex="1">
          <mxGeometry x="1085" y="380" width="50" height="35" as="geometry" />
        </mxCell>
        <mxCell id="0sxkqcGZ3d9sreAJxTUJ-98" style="edgeStyle=orthogonalEdgeStyle;rounded=0;orthogonalLoop=1;jettySize=auto;html=1;" parent="1" source="0sxkqcGZ3d9sreAJxTUJ-79" edge="1">
          <mxGeometry relative="1" as="geometry">
            <mxPoint x="1110" y="220" as="targetPoint" />
          </mxGeometry>
        </mxCell>
        <mxCell id="0sxkqcGZ3d9sreAJxTUJ-79" value="조회" style="ellipse;whiteSpace=wrap;html=1;" parent="1" vertex="1">
          <mxGeometry x="1060" y="260" width="50" height="30" as="geometry" />
        </mxCell>
        <mxCell id="0sxkqcGZ3d9sreAJxTUJ-97" style="edgeStyle=orthogonalEdgeStyle;rounded=0;orthogonalLoop=1;jettySize=auto;html=1;entryX=0.5;entryY=1;entryDx=0;entryDy=0;" parent="1" source="0sxkqcGZ3d9sreAJxTUJ-81" target="0sxkqcGZ3d9sreAJxTUJ-72" edge="1">
          <mxGeometry relative="1" as="geometry" />
        </mxCell>
        <mxCell id="0sxkqcGZ3d9sreAJxTUJ-81" value="삭제" style="ellipse;whiteSpace=wrap;html=1;" parent="1" vertex="1">
          <mxGeometry x="1110" y="260" width="50" height="30" as="geometry" />
        </mxCell>
        <mxCell id="0sxkqcGZ3d9sreAJxTUJ-82" value="고객센터 관리" style="ellipse;whiteSpace=wrap;html=1;" parent="1" vertex="1">
          <mxGeometry x="1070" y="450" width="80" height="40" as="geometry" />
        </mxCell>
        <mxCell id="0sxkqcGZ3d9sreAJxTUJ-105" style="edgeStyle=orthogonalEdgeStyle;rounded=0;orthogonalLoop=1;jettySize=auto;html=1;entryX=0.5;entryY=1;entryDx=0;entryDy=0;" parent="1" source="0sxkqcGZ3d9sreAJxTUJ-83" target="0sxkqcGZ3d9sreAJxTUJ-82" edge="1">
          <mxGeometry relative="1" as="geometry" />
        </mxCell>
        <mxCell id="0sxkqcGZ3d9sreAJxTUJ-83" value="답변 등록" style="ellipse;whiteSpace=wrap;html=1;" parent="1" vertex="1">
          <mxGeometry x="1020" y="545" width="60" height="35" as="geometry" />
        </mxCell>
        <mxCell id="0sxkqcGZ3d9sreAJxTUJ-103" style="edgeStyle=orthogonalEdgeStyle;rounded=0;orthogonalLoop=1;jettySize=auto;html=1;" parent="1" source="0sxkqcGZ3d9sreAJxTUJ-84" edge="1">
          <mxGeometry relative="1" as="geometry">
            <mxPoint x="1109.9999999999995" y="490" as="targetPoint" />
          </mxGeometry>
        </mxCell>
        <mxCell id="0sxkqcGZ3d9sreAJxTUJ-84" value="답변 수정" style="ellipse;whiteSpace=wrap;html=1;" parent="1" vertex="1">
          <mxGeometry x="1080" y="545" width="60" height="35" as="geometry" />
        </mxCell>
        <mxCell id="0sxkqcGZ3d9sreAJxTUJ-102" style="edgeStyle=orthogonalEdgeStyle;rounded=0;orthogonalLoop=1;jettySize=auto;html=1;entryX=0.5;entryY=1;entryDx=0;entryDy=0;" parent="1" source="0sxkqcGZ3d9sreAJxTUJ-85" target="0sxkqcGZ3d9sreAJxTUJ-82" edge="1">
          <mxGeometry relative="1" as="geometry" />
        </mxCell>
        <mxCell id="0sxkqcGZ3d9sreAJxTUJ-85" value="답변 삭제" style="ellipse;whiteSpace=wrap;html=1;" parent="1" vertex="1">
          <mxGeometry x="1140" y="545" width="60" height="35" as="geometry" />
        </mxCell>
        <mxCell id="0sxkqcGZ3d9sreAJxTUJ-86" value="&amp;lt;&amp;lt;include&amp;gt;&amp;gt;" style="endArrow=open;endSize=12;html=1;rounded=0;exitX=0;exitY=0.5;exitDx=0;exitDy=0;dashed=1;" parent="1" source="0sxkqcGZ3d9sreAJxTUJ-72" target="0sxkqcGZ3d9sreAJxTUJ-48" edge="1">
          <mxGeometry width="160" relative="1" as="geometry">
            <mxPoint x="540" y="195" as="sourcePoint" />
            <mxPoint x="890" y="490" as="targetPoint" />
          </mxGeometry>
        </mxCell>
        <mxCell id="0sxkqcGZ3d9sreAJxTUJ-87" value="&amp;lt;&amp;lt;include&amp;gt;&amp;gt;" style="endArrow=open;endSize=12;html=1;rounded=0;exitX=0;exitY=0.5;exitDx=0;exitDy=0;dashed=1;" parent="1" source="0sxkqcGZ3d9sreAJxTUJ-75" target="0sxkqcGZ3d9sreAJxTUJ-48" edge="1">
          <mxGeometry width="160" relative="1" as="geometry">
            <mxPoint x="1430" y="355" as="sourcePoint" />
            <mxPoint x="920" y="515" as="targetPoint" />
          </mxGeometry>
        </mxCell>
        <mxCell id="0sxkqcGZ3d9sreAJxTUJ-88" value="&amp;lt;&amp;lt;include&amp;gt;&amp;gt;" style="endArrow=open;endSize=12;html=1;rounded=0;exitX=0;exitY=0.5;exitDx=0;exitDy=0;dashed=1;" parent="1" source="0sxkqcGZ3d9sreAJxTUJ-82" target="0sxkqcGZ3d9sreAJxTUJ-48" edge="1">
          <mxGeometry width="160" relative="1" as="geometry">
            <mxPoint x="1440" y="365" as="sourcePoint" />
            <mxPoint x="930" y="525" as="targetPoint" />
          </mxGeometry>
        </mxCell>
        <mxCell id="0sxkqcGZ3d9sreAJxTUJ-89" value="Use" style="endArrow=open;endSize=12;html=1;rounded=0;entryX=1;entryY=0.5;entryDx=0;entryDy=0;exitX=0.5;exitY=0.5;exitDx=0;exitDy=0;exitPerimeter=0;" parent="1" source="0sxkqcGZ3d9sreAJxTUJ-7" target="0sxkqcGZ3d9sreAJxTUJ-72" edge="1">
          <mxGeometry width="160" relative="1" as="geometry">
            <mxPoint x="1685" y="570" as="sourcePoint" />
            <mxPoint x="1498" y="345" as="targetPoint" />
          </mxGeometry>
        </mxCell>
        <mxCell id="0sxkqcGZ3d9sreAJxTUJ-90" value="Use" style="endArrow=open;endSize=12;html=1;rounded=0;exitX=0.5;exitY=0.5;exitDx=0;exitDy=0;exitPerimeter=0;entryX=1;entryY=0.5;entryDx=0;entryDy=0;" parent="1" source="0sxkqcGZ3d9sreAJxTUJ-7" target="0sxkqcGZ3d9sreAJxTUJ-75" edge="1">
          <mxGeometry width="160" relative="1" as="geometry">
            <mxPoint x="1805" y="400" as="sourcePoint" />
            <mxPoint x="1508" y="355" as="targetPoint" />
          </mxGeometry>
        </mxCell>
        <mxCell id="0sxkqcGZ3d9sreAJxTUJ-91" value="Use" style="endArrow=open;endSize=12;html=1;rounded=0;exitX=0.5;exitY=0.5;exitDx=0;exitDy=0;exitPerimeter=0;entryX=1;entryY=0.5;entryDx=0;entryDy=0;" parent="1" source="0sxkqcGZ3d9sreAJxTUJ-7" target="0sxkqcGZ3d9sreAJxTUJ-82" edge="1">
          <mxGeometry width="160" relative="1" as="geometry">
            <mxPoint x="1815" y="410" as="sourcePoint" />
            <mxPoint x="1518" y="365" as="targetPoint" />
          </mxGeometry>
        </mxCell>
        <mxCell id="0sxkqcGZ3d9sreAJxTUJ-94" style="edgeStyle=orthogonalEdgeStyle;rounded=0;orthogonalLoop=1;jettySize=auto;html=1;entryX=0.5;entryY=1;entryDx=0;entryDy=0;dashed=1;" parent="1" source="0sxkqcGZ3d9sreAJxTUJ-93" target="0sxkqcGZ3d9sreAJxTUJ-22" edge="1">
          <mxGeometry relative="1" as="geometry">
            <Array as="points">
              <mxPoint x="405" y="865" />
              <mxPoint x="378" y="865" />
            </Array>
          </mxGeometry>
        </mxCell>
        <mxCell id="0sxkqcGZ3d9sreAJxTUJ-93" value="공지사항" style="ellipse;whiteSpace=wrap;html=1;" parent="1" vertex="1">
          <mxGeometry x="377.5" y="885" width="55" height="30" as="geometry" />
        </mxCell>
        <mxCell id="0sxkqcGZ3d9sreAJxTUJ-95" value="&amp;lt;&amp;lt;include&amp;gt;&amp;gt;" style="endArrow=open;endSize=12;html=1;rounded=0;exitX=1;exitY=0.5;exitDx=0;exitDy=0;dashed=1;" parent="1" source="0sxkqcGZ3d9sreAJxTUJ-22" target="0sxkqcGZ3d9sreAJxTUJ-48" edge="1">
          <mxGeometry width="160" relative="1" as="geometry">
            <mxPoint x="430" y="655" as="sourcePoint" />
            <mxPoint x="869" y="533" as="targetPoint" />
          </mxGeometry>
        </mxCell>
        <mxCell id="0sxkqcGZ3d9sreAJxTUJ-96" value="&amp;lt;&amp;lt;include&amp;gt;&amp;gt;" style="endArrow=open;endSize=12;html=1;rounded=0;exitX=1;exitY=0.5;exitDx=0;exitDy=0;dashed=1;" parent="1" source="0sxkqcGZ3d9sreAJxTUJ-21" target="0sxkqcGZ3d9sreAJxTUJ-48" edge="1">
          <mxGeometry width="160" relative="1" as="geometry">
            <mxPoint x="450" y="1045" as="sourcePoint" />
            <mxPoint x="930" y="650" as="targetPoint" />
          </mxGeometry>
        </mxCell>
        <mxCell id="0sxkqcGZ3d9sreAJxTUJ-106" value="&amp;lt;&amp;lt;include&amp;gt;&amp;gt;" style="endArrow=open;endSize=12;html=1;rounded=0;exitX=1;exitY=0.5;exitDx=0;exitDy=0;dashed=1;" parent="1" source="0sxkqcGZ3d9sreAJxTUJ-16" target="0sxkqcGZ3d9sreAJxTUJ-48" edge="1">
          <mxGeometry width="160" relative="1" as="geometry">
            <mxPoint x="450" y="1045" as="sourcePoint" />
            <mxPoint x="930" y="650" as="targetPoint" />
          </mxGeometry>
        </mxCell>
        <mxCell id="0sxkqcGZ3d9sreAJxTUJ-107" value="영화 관리" style="ellipse;whiteSpace=wrap;html=1;" parent="1" vertex="1">
          <mxGeometry x="1070" y="640" width="80" height="40" as="geometry" />
        </mxCell>
        <mxCell id="0sxkqcGZ3d9sreAJxTUJ-111" style="edgeStyle=orthogonalEdgeStyle;rounded=0;orthogonalLoop=1;jettySize=auto;html=1;entryX=0.5;entryY=1;entryDx=0;entryDy=0;" parent="1" source="0sxkqcGZ3d9sreAJxTUJ-108" target="0sxkqcGZ3d9sreAJxTUJ-107" edge="1">
          <mxGeometry relative="1" as="geometry" />
        </mxCell>
        <mxCell id="0sxkqcGZ3d9sreAJxTUJ-108" value="추가" style="ellipse;whiteSpace=wrap;html=1;" parent="1" vertex="1">
          <mxGeometry x="1050" y="730" width="40" height="30" as="geometry" />
        </mxCell>
        <mxCell id="0sxkqcGZ3d9sreAJxTUJ-112" style="edgeStyle=orthogonalEdgeStyle;rounded=0;orthogonalLoop=1;jettySize=auto;html=1;" parent="1" source="0sxkqcGZ3d9sreAJxTUJ-109" edge="1">
          <mxGeometry relative="1" as="geometry">
            <mxPoint x="1110" y="680" as="targetPoint" />
          </mxGeometry>
        </mxCell>
        <mxCell id="0sxkqcGZ3d9sreAJxTUJ-109" value="변경" style="ellipse;whiteSpace=wrap;html=1;" parent="1" vertex="1">
          <mxGeometry x="1090" y="730" width="40" height="30" as="geometry" />
        </mxCell>
        <mxCell id="0sxkqcGZ3d9sreAJxTUJ-113" style="edgeStyle=orthogonalEdgeStyle;rounded=0;orthogonalLoop=1;jettySize=auto;html=1;" parent="1" source="0sxkqcGZ3d9sreAJxTUJ-110" target="0sxkqcGZ3d9sreAJxTUJ-107" edge="1">
          <mxGeometry relative="1" as="geometry" />
        </mxCell>
        <mxCell id="0sxkqcGZ3d9sreAJxTUJ-110" value="삭제" style="ellipse;whiteSpace=wrap;html=1;" parent="1" vertex="1">
          <mxGeometry x="1130" y="730" width="40" height="30" as="geometry" />
        </mxCell>
        <mxCell id="0sxkqcGZ3d9sreAJxTUJ-114" value="Use" style="endArrow=open;endSize=12;html=1;rounded=0;exitX=0.5;exitY=0.5;exitDx=0;exitDy=0;exitPerimeter=0;entryX=1;entryY=0.5;entryDx=0;entryDy=0;" parent="1" source="0sxkqcGZ3d9sreAJxTUJ-7" target="0sxkqcGZ3d9sreAJxTUJ-107" edge="1">
          <mxGeometry width="160" relative="1" as="geometry">
            <mxPoint x="1805" y="400" as="sourcePoint" />
            <mxPoint x="1520" y="795" as="targetPoint" />
          </mxGeometry>
        </mxCell>
        <mxCell id="0sxkqcGZ3d9sreAJxTUJ-118" value="&lt;font style=&quot;vertical-align: inherit;&quot;&gt;&lt;font style=&quot;vertical-align: inherit;&quot;&gt;시간별 조회&lt;/font&gt;&lt;/font&gt;" style="ellipse;whiteSpace=wrap;html=1;" parent="1" vertex="1">
          <mxGeometry x="470" y="525" width="75" height="30" as="geometry" />
        </mxCell>
        <mxCell id="0sxkqcGZ3d9sreAJxTUJ-119" value="스토어 관리" style="ellipse;whiteSpace=wrap;html=1;" parent="1" vertex="1">
          <mxGeometry x="1070" y="820" width="80" height="35" as="geometry" />
        </mxCell>
        <mxCell id="0sxkqcGZ3d9sreAJxTUJ-120" style="edgeStyle=orthogonalEdgeStyle;rounded=0;orthogonalLoop=1;jettySize=auto;html=1;entryX=0.5;entryY=1;entryDx=0;entryDy=0;" parent="1" source="0sxkqcGZ3d9sreAJxTUJ-121" target="0sxkqcGZ3d9sreAJxTUJ-119" edge="1">
          <mxGeometry relative="1" as="geometry" />
        </mxCell>
        <mxCell id="0sxkqcGZ3d9sreAJxTUJ-121" value="상품 등록" style="ellipse;whiteSpace=wrap;html=1;" parent="1" vertex="1">
          <mxGeometry x="1020" y="905" width="60" height="35" as="geometry" />
        </mxCell>
        <mxCell id="0sxkqcGZ3d9sreAJxTUJ-122" style="edgeStyle=orthogonalEdgeStyle;rounded=0;orthogonalLoop=1;jettySize=auto;html=1;" parent="1" source="0sxkqcGZ3d9sreAJxTUJ-123" edge="1">
          <mxGeometry relative="1" as="geometry">
            <mxPoint x="1110" y="855" as="targetPoint" />
          </mxGeometry>
        </mxCell>
        <mxCell id="0sxkqcGZ3d9sreAJxTUJ-123" value="상품 수정" style="ellipse;whiteSpace=wrap;html=1;" parent="1" vertex="1">
          <mxGeometry x="1080" y="905" width="60" height="35" as="geometry" />
        </mxCell>
        <mxCell id="0sxkqcGZ3d9sreAJxTUJ-124" style="edgeStyle=orthogonalEdgeStyle;rounded=0;orthogonalLoop=1;jettySize=auto;html=1;" parent="1" source="0sxkqcGZ3d9sreAJxTUJ-125" target="0sxkqcGZ3d9sreAJxTUJ-119" edge="1">
          <mxGeometry relative="1" as="geometry" />
        </mxCell>
        <mxCell id="0sxkqcGZ3d9sreAJxTUJ-125" value="상품 삭제" style="ellipse;whiteSpace=wrap;html=1;" parent="1" vertex="1">
          <mxGeometry x="1140" y="905" width="60" height="35" as="geometry" />
        </mxCell>
        <mxCell id="0sxkqcGZ3d9sreAJxTUJ-126" value="&amp;lt;&amp;lt;include&amp;gt;&amp;gt;" style="endArrow=open;endSize=12;html=1;rounded=0;exitX=0;exitY=0.5;exitDx=0;exitDy=0;dashed=1;" parent="1" source="0sxkqcGZ3d9sreAJxTUJ-119" target="0sxkqcGZ3d9sreAJxTUJ-48" edge="1">
          <mxGeometry width="160" relative="1" as="geometry">
            <mxPoint x="1220" y="695" as="sourcePoint" />
            <mxPoint x="930" y="650" as="targetPoint" />
          </mxGeometry>
        </mxCell>
        <mxCell id="j1pfQ7dIa7CcptA91Vp--1" value="&lt;font style=&quot;vertical-align: inherit;&quot;&gt;&lt;font style=&quot;vertical-align: inherit;&quot;&gt;카드인증 회사&lt;/font&gt;&lt;/font&gt;" style="shape=umlActor;verticalLabelPosition=bottom;verticalAlign=top;html=1;" parent="1" vertex="1">
          <mxGeometry x="575" y="340" width="30" height="60" as="geometry" />
        </mxCell>
        <mxCell id="j1pfQ7dIa7CcptA91Vp--4" value="Use" style="endArrow=open;endSize=12;html=1;rounded=0;exitX=1;exitY=0;exitDx=0;exitDy=0;entryX=0.5;entryY=0.5;entryDx=0;entryDy=0;entryPerimeter=0;" parent="1" source="0sxkqcGZ3d9sreAJxTUJ-23" target="j1pfQ7dIa7CcptA91Vp--1" edge="1">
          <mxGeometry width="160" relative="1" as="geometry">
            <mxPoint x="75" y="290" as="sourcePoint" />
            <mxPoint x="790" y="630" as="targetPoint" />
          </mxGeometry>
        </mxCell>
        <mxCell id="j1pfQ7dIa7CcptA91Vp--9" value="&lt;font style=&quot;vertical-align: inherit;&quot;&gt;&lt;font style=&quot;vertical-align: inherit;&quot;&gt;&amp;lt;&amp;lt;extend&amp;gt;&amp;gt;&lt;/font&gt;&lt;/font&gt;" style="endArrow=open;endSize=12;html=1;rounded=0;exitX=0;exitY=0.5;exitDx=0;exitDy=0;entryX=1;entryY=0;entryDx=0;entryDy=0;dashed=1;" parent="1" source="j1pfQ7dIa7CcptA91Vp--11" target="0sxkqcGZ3d9sreAJxTUJ-18" edge="1">
          <mxGeometry width="160" relative="1" as="geometry">
            <mxPoint x="476.25000000000205" y="555.0000000000001" as="sourcePoint" />
            <mxPoint x="931.25" y="730" as="targetPoint" />
          </mxGeometry>
        </mxCell>
        <mxCell id="j1pfQ7dIa7CcptA91Vp--10" value="&lt;font style=&quot;vertical-align: inherit;&quot;&gt;&lt;font style=&quot;vertical-align: inherit;&quot;&gt;&lt;font style=&quot;vertical-align: inherit;&quot;&gt;&lt;font style=&quot;vertical-align: inherit;&quot;&gt;극장별 조회&lt;/font&gt;&lt;/font&gt;&lt;/font&gt;&lt;/font&gt;" style="ellipse;whiteSpace=wrap;html=1;" parent="1" vertex="1">
          <mxGeometry x="470" y="495" width="75" height="30" as="geometry" />
        </mxCell>
        <mxCell id="j1pfQ7dIa7CcptA91Vp--11" value="&lt;font style=&quot;vertical-align: inherit;&quot;&gt;&lt;font style=&quot;vertical-align: inherit;&quot;&gt;&lt;font style=&quot;vertical-align: inherit;&quot;&gt;&lt;font style=&quot;vertical-align: inherit;&quot;&gt;영화별 조회&lt;/font&gt;&lt;/font&gt;&lt;/font&gt;&lt;/font&gt;" style="ellipse;whiteSpace=wrap;html=1;" parent="1" vertex="1">
          <mxGeometry x="470" y="465" width="75" height="30" as="geometry" />
        </mxCell>
        <mxCell id="j1pfQ7dIa7CcptA91Vp--12" value="&lt;font style=&quot;vertical-align: inherit;&quot;&gt;&lt;font style=&quot;vertical-align: inherit;&quot;&gt;&amp;lt;&amp;lt;extend&amp;gt;&amp;gt;&lt;/font&gt;&lt;/font&gt;" style="endArrow=open;endSize=12;html=1;rounded=0;exitX=0;exitY=0.5;exitDx=0;exitDy=0;entryX=1;entryY=0.5;entryDx=0;entryDy=0;dashed=1;" parent="1" source="j1pfQ7dIa7CcptA91Vp--10" target="0sxkqcGZ3d9sreAJxTUJ-18" edge="1">
          <mxGeometry width="160" relative="1" as="geometry">
            <mxPoint x="494.25" y="565" as="sourcePoint" />
            <mxPoint x="359.25" y="567" as="targetPoint" />
          </mxGeometry>
        </mxCell>
        <mxCell id="j1pfQ7dIa7CcptA91Vp--13" value="&lt;font style=&quot;vertical-align: inherit;&quot;&gt;&lt;font style=&quot;vertical-align: inherit;&quot;&gt;&amp;lt;&amp;lt;extend&amp;gt;&amp;gt;&lt;/font&gt;&lt;/font&gt;" style="endArrow=open;endSize=12;html=1;rounded=0;exitX=0;exitY=0.5;exitDx=0;exitDy=0;entryX=1;entryY=1;entryDx=0;entryDy=0;dashed=1;" parent="1" source="0sxkqcGZ3d9sreAJxTUJ-118" target="0sxkqcGZ3d9sreAJxTUJ-18" edge="1">
          <mxGeometry width="160" relative="1" as="geometry">
            <mxPoint x="504.25" y="575" as="sourcePoint" />
            <mxPoint x="369.25" y="577" as="targetPoint" />
          </mxGeometry>
        </mxCell>
        <mxCell id="j1pfQ7dIa7CcptA91Vp--14" value="Use" style="endArrow=open;endSize=12;html=1;rounded=0;exitX=1;exitY=0.5;exitDx=0;exitDy=0;entryX=0.5;entryY=0.5;entryDx=0;entryDy=0;entryPerimeter=0;" parent="1" source="0sxkqcGZ3d9sreAJxTUJ-51" target="j1pfQ7dIa7CcptA91Vp--1" edge="1">
          <mxGeometry width="160" relative="1" as="geometry">
            <mxPoint x="351" y="503" as="sourcePoint" />
            <mxPoint x="655" y="520" as="targetPoint" />
          </mxGeometry>
        </mxCell>
        <mxCell id="4dzDuoimYEvEoXy0T6nt-1" value="&amp;lt;&amp;lt;include&amp;gt;&amp;gt;" style="endArrow=open;endSize=12;html=1;rounded=0;exitX=0;exitY=0.5;exitDx=0;exitDy=0;dashed=1;" parent="1" source="0sxkqcGZ3d9sreAJxTUJ-107" target="0sxkqcGZ3d9sreAJxTUJ-48" edge="1">
          <mxGeometry width="160" relative="1" as="geometry">
            <mxPoint x="1220" y="695" as="sourcePoint" />
            <mxPoint x="940" y="710" as="targetPoint" />
          </mxGeometry>
        </mxCell>
        <mxCell id="4dzDuoimYEvEoXy0T6nt-10" style="edgeStyle=orthogonalEdgeStyle;rounded=0;orthogonalLoop=1;jettySize=auto;html=1;entryX=0.5;entryY=1;entryDx=0;entryDy=0;dashed=1;" parent="1" source="0sxkqcGZ3d9sreAJxTUJ-36" target="0sxkqcGZ3d9sreAJxTUJ-19" edge="1">
          <mxGeometry relative="1" as="geometry" />
        </mxCell>
        <mxCell id="0sxkqcGZ3d9sreAJxTUJ-36" value="스마트 영수증" style="ellipse;whiteSpace=wrap;html=1;" parent="1" vertex="1">
          <mxGeometry x="470" y="260" width="85" height="30" as="geometry" />
        </mxCell>
        <mxCell id="4dzDuoimYEvEoXy0T6nt-12" value="Use" style="endArrow=open;endSize=12;html=1;rounded=0;exitX=0.5;exitY=0.5;exitDx=0;exitDy=0;exitPerimeter=0;entryX=1;entryY=0.5;entryDx=0;entryDy=0;" parent="1" source="0sxkqcGZ3d9sreAJxTUJ-7" target="0sxkqcGZ3d9sreAJxTUJ-119" edge="1">
          <mxGeometry width="160" relative="1" as="geometry">
            <mxPoint x="1715" y="570" as="sourcePoint" />
            <mxPoint x="1290" y="785" as="targetPoint" />
          </mxGeometry>
        </mxCell>
        <mxCell id="4dzDuoimYEvEoXy0T6nt-13" value="&amp;lt;&amp;lt;include&amp;gt;&amp;gt;" style="endArrow=open;endSize=12;html=1;rounded=0;exitX=1;exitY=0.5;exitDx=0;exitDy=0;dashed=1;" parent="1" source="0sxkqcGZ3d9sreAJxTUJ-23" target="0sxkqcGZ3d9sreAJxTUJ-48" edge="1">
          <mxGeometry width="160" relative="1" as="geometry">
            <mxPoint x="530" y="190" as="sourcePoint" />
            <mxPoint x="810" y="630" as="targetPoint" />
          </mxGeometry>
        </mxCell>
        <mxCell id="4dzDuoimYEvEoXy0T6nt-18" style="edgeStyle=orthogonalEdgeStyle;rounded=0;orthogonalLoop=1;jettySize=auto;html=1;entryX=0.5;entryY=1;entryDx=0;entryDy=0;dashed=1;" parent="1" edge="1">
          <mxGeometry relative="1" as="geometry">
            <mxPoint x="380" y="260" as="sourcePoint" />
            <mxPoint x="485" y="200" as="targetPoint" />
            <Array as="points">
              <mxPoint x="380" y="230" />
              <mxPoint x="485" y="230" />
            </Array>
          </mxGeometry>
        </mxCell>
        <mxCell id="4dzDuoimYEvEoXy0T6nt-19" value="&amp;lt;&amp;lt;extend&amp;gt;&amp;gt;" style="text;html=1;strokeColor=none;fillColor=none;align=center;verticalAlign=middle;whiteSpace=wrap;rounded=0;" parent="1" vertex="1">
          <mxGeometry x="420" y="207" width="60" height="30" as="geometry" />
        </mxCell>
        <mxCell id="4dzDuoimYEvEoXy0T6nt-21" value="&amp;lt;&amp;lt;extend&amp;gt;&amp;gt;" style="text;html=1;strokeColor=none;fillColor=none;align=center;verticalAlign=middle;whiteSpace=wrap;rounded=0;" parent="1" vertex="1">
          <mxGeometry x="317.5" y="597" width="60" height="30" as="geometry" />
        </mxCell>
        <mxCell id="4dzDuoimYEvEoXy0T6nt-22" value="&amp;lt;&amp;lt;extend&amp;gt;&amp;gt;" style="text;html=1;strokeColor=none;fillColor=none;align=center;verticalAlign=middle;whiteSpace=wrap;rounded=0;" parent="1" vertex="1">
          <mxGeometry x="300" y="730" width="60" height="30" as="geometry" />
        </mxCell>
        <mxCell id="4dzDuoimYEvEoXy0T6nt-25" value="&amp;lt;&amp;lt;extend&amp;gt;&amp;gt;" style="text;html=1;strokeColor=none;fillColor=none;align=center;verticalAlign=middle;whiteSpace=wrap;rounded=0;" parent="1" vertex="1">
          <mxGeometry x="300" y="845" width="60" height="30" as="geometry" />
        </mxCell>
      </root>
    </mxGraphModel>
  </diagram>
  <diagram id="pHHkE1j3vU80-7zI9oZY" name="페이지-2">
    <mxGraphModel dx="1450" dy="883" grid="0" gridSize="10" guides="1" tooltips="1" connect="1" arrows="1" fold="1" page="0" pageScale="1" pageWidth="827" pageHeight="1169" math="0" shadow="0">
      <root>
        <mxCell id="0" />
        <mxCell id="1" parent="0" />
        <mxCell id="oOpYzLnZUZC1WgUSiYhd-1" value="회원" style="shape=umlActor;verticalLabelPosition=bottom;verticalAlign=top;html=1;fontSize=16;" parent="1" vertex="1">
          <mxGeometry x="-227" y="70.5" width="30" height="60" as="geometry" />
        </mxCell>
        <mxCell id="oOpYzLnZUZC1WgUSiYhd-2" value="비회원" style="shape=umlActor;verticalLabelPosition=bottom;verticalAlign=top;html=1;fontSize=16;" parent="1" vertex="1">
          <mxGeometry x="-227" y="235.5" width="30" height="60" as="geometry" />
        </mxCell>
        <mxCell id="oOpYzLnZUZC1WgUSiYhd-3" value="관리자" style="shape=umlActor;verticalLabelPosition=bottom;verticalAlign=top;html=1;fontSize=16;" parent="1" vertex="1">
          <mxGeometry x="370" y="153" width="30" height="60" as="geometry" />
        </mxCell>
        <mxCell id="oOpYzLnZUZC1WgUSiYhd-4" value="Use Case" style="ellipse;whiteSpace=wrap;html=1;fontSize=16;" parent="1" vertex="1">
          <mxGeometry x="-43" y="77" width="140" height="70" as="geometry" />
        </mxCell>
        <mxCell id="qVQjwkNDENiOZOY8uUjr-1" value="Use Case" style="ellipse;whiteSpace=wrap;html=1;fontSize=16;" parent="1" vertex="1">
          <mxGeometry x="-43" y="231" width="140" height="70" as="geometry" />
        </mxCell>
        <mxCell id="nibMbx3ranYtzISS3nEk-1" value="frame" style="shape=umlFrame;whiteSpace=wrap;html=1;pointerEvents=0;fontSize=16;" parent="1" vertex="1">
          <mxGeometry x="-112" y="-1" width="393" height="442" as="geometry" />
        </mxCell>
      </root>
    </mxGraphModel>
  </diagram>
</mxfile>
